<?xml version="1.0" standalone="no"?><!DOCTYPE svg PUBLIC "-//W3C//DTD SVG 1.1//EN" "http://www.w3.org/Graphics/SVG/1.1/DTD/svg11.dtd"><svg t="1774232598363" class="icon" viewBox="0 0 1024 1024" version="1.1" xmlns="http://www.w3.org/2000/svg" p-id="8656" xmlns:xlink="http://www.w3.org/1999/xlink" width="200" height="200"><path d="M302.208 96c43.904 0 74.24 0 101.504 10.24 59.52 22.272 85.696 75.136 105.856 115.904 6.016 12.032 16.96 33.92 20.032 38.784a11.2 11.2 0 0 0 8.32 5.12c5.632 0.64 13.312 0.64 26.816 0.64h151.68c43.456 0 78.528 0 106.624 2.816 29.056 3.008 54.272 9.216 76.544 24.128a160 160 0 0 1 44.16 44.16c14.848 22.272 21.12 47.424 24.064 76.48 2.88 28.16 2.88 66.752 2.88 110.208 0 73.344 0 130.88-4.672 176.64-4.736 46.72-14.592 84.8-36.672 117.824-17.92 26.816-40.96 49.792-67.712 67.712-33.024 22.08-71.04 31.936-117.76 36.672-45.824 4.672-103.36 4.672-176.768 4.672h-57.6c-98.432 0-175.616 0-235.84-8.128-61.632-8.256-110.272-25.6-148.48-63.744-38.208-38.144-55.488-86.784-63.744-148.48-8.128-60.16-8.128-137.344-8.128-235.84V337.472c0-37.504 0-67.712 2.176-92.16 2.24-25.152 6.912-47.168 18.112-67.264a160 160 0 0 1 61.76-61.76c20.096-11.2 42.112-15.936 67.264-18.112 24.448-2.176 62.08-2.176 99.584-2.176z" fill="#333333" p-id="8657"></path></svg>