<?xml version="1.0" standalone="no"?><!DOCTYPE svg PUBLIC "-//W3C//DTD SVG 1.1//EN" "http://www.w3.org/Graphics/SVG/1.1/DTD/svg11.dtd"><svg t="1774232419746" class="icon" viewBox="0 0 1024 1024" version="1.1" xmlns="http://www.w3.org/2000/svg" p-id="2055" xmlns:xlink="http://www.w3.org/1999/xlink" width="200" height="200"><path d="M512 42.666667C418.261333 42.666667 341.333333 119.594667 341.333333 213.333333v298.666667c0 53.333333 21.546667 98.773333 54.314667 127.914667C428.501333 669.056 470.528 682.666667 512 682.666667s83.541333-13.610667 116.352-42.752C661.12 610.773333 682.666667 565.333333 682.666667 512V213.333333c0-93.738667-76.928-170.666667-170.666667-170.666666z m0 85.333333c47.616 0 85.333333 37.717333 85.333333 85.333333v298.666667c0 32-10.453333 50.56-25.685333 64.085333-15.189333 13.525333-37.12 21.248-59.648 21.248-22.528 0-44.458667-7.722667-59.648-21.248C437.12 562.56 426.666667 544 426.666667 512V213.333333c0-47.616 37.717333-85.333333 85.333333-85.333333z" fill="#000000" p-id="2056"></path><path d="M213.333333 384a42.666667 42.666667 0 0 0-42.666666 42.666667v85.333333c0 187.989333 153.344 341.333333 341.333333 341.333333 187.989333 0 341.333333-153.344 341.333333-341.333333v-85.333333a42.666667 42.666667 0 0 0-42.666666-42.666667 42.666667 42.666667 0 0 0-42.666667 42.666667v85.333333c0 141.909333-114.090667 256-256 256s-256-114.090667-256-256v-85.333333a42.666667 42.666667 0 0 0-42.666667-42.666667z" fill="#000000" p-id="2057"></path><path d="M512 768a42.666667 42.666667 0 0 0-42.666667 42.666667v128a42.666667 42.666667 0 0 0 42.666667 42.666666 42.666667 42.666667 0 0 0 42.666667-42.666666v-128a42.666667 42.666667 0 0 0-42.666667-42.666667z" fill="#000000" p-id="2058"></path></svg>