<?xml version="1.0" standalone="no"?><!DOCTYPE svg PUBLIC "-//W3C//DTD SVG 1.1//EN" "http://www.w3.org/Graphics/SVG/1.1/DTD/svg11.dtd"><svg t="1775183101404" class="icon" viewBox="0 0 1024 1024" version="1.1" xmlns="http://www.w3.org/2000/svg" p-id="22049" xmlns:xlink="http://www.w3.org/1999/xlink" width="200" height="200"><path d="M86.528 244.736L493.568 10.24c11.264-6.656 25.088-6.656 36.352 0L936.96 244.736c11.264 6.656 18.432 18.432 18.432 31.744v470.016c0 13.312-7.168 25.088-18.432 31.744l-407.04 235.008a35.584 35.584 0 0 1-36.352 0L86.528 778.24c-11.264-6.656-18.432-18.432-18.432-31.744V276.48c0-12.8 7.168-25.088 18.432-31.744z m59.392 50.176c-3.072 1.536-4.608 4.608-4.608 7.68v416.768c0 3.072 1.536 6.144 4.608 7.68L506.88 936.448c3.072 1.536 6.144 1.536 9.216 0l360.96-208.384c3.072-1.536 4.608-4.608 4.608-7.68V303.104c0-3.072-1.536-6.144-4.608-7.68L516.096 87.04c-3.072-1.536-6.144-1.536-9.216 0L145.92 294.912z m365.568 179.2l281.6-162.816c17.408-10.24 39.936-4.096 50.176 13.312 10.24 17.408 4.096 39.936-13.312 50.176l-281.088 162.304v321.536c0 19.968-16.384 36.352-36.352 36.352-19.968 0-36.352-16.384-36.352-36.352V537.6L194.048 375.296c-17.408-10.24-23.552-32.256-13.312-50.176 10.24-17.408 32.256-23.552 50.176-13.312l280.576 162.304z" p-id="22050"></path></svg>