<?xml version="1.0" standalone="no"?><!DOCTYPE svg PUBLIC "-//W3C//DTD SVG 1.1//EN" "http://www.w3.org/Graphics/SVG/1.1/DTD/svg11.dtd"><svg t="1775570720684" class="icon" viewBox="0 0 1024 1024" version="1.1" xmlns="http://www.w3.org/2000/svg" p-id="14241" xmlns:xlink="http://www.w3.org/1999/xlink" width="200" height="200"><path d="M398.262857 625.810286h227.474286v284.452571h-227.474286v-284.525714z" p-id="14242"></path><path d="M256 858.989714c0-25.088 20.406857-45.494857 45.494857-45.494857h421.010286c25.161143 0 45.494857 20.406857 45.494857 45.494857v37.010286a45.494857 45.494857 0 0 1-45.494857 45.494857H301.494857a45.494857 45.494857 0 0 1-45.494857-45.494857v-37.010286z" p-id="14243"></path><path d="M839.094857 85.357714c70.729143 0 128 57.270857 128 128v369.737143a128 128 0 0 1-128 128H184.905143a128 128 0 0 1-128-128V213.357714c0-70.729143 57.270857-128 128-128h654.189714zM512 227.474286c-25.453714 0-48.786286 6.875429-69.997714 20.553143a128 128 0 0 0-47.542857 55.076571 107.081143 107.081143 0 0 0-75.629715 34.011429 107.52 107.52 0 0 0-30.793143 77.019428c0 31.085714 10.898286 57.563429 32.621715 79.36 21.796571 21.723429 48.274286 32.621714 79.36 32.621714h242.688c26.112 0 48.274286-9.142857 66.267428-27.501714 17.993143-18.285714 27.062857-40.594286 27.062857-66.706286S726.674286 383.707429 708.022857 365.714286a93.330286 93.330286 0 0 0-67.218286-27.062857 128.731429 128.731429 0 0 0-43.885714-79.36 125.293714 125.293714 0 0 0-84.845714-31.744z" p-id="14244"></path></svg>