<?xml version="1.0" standalone="no"?><!DOCTYPE svg PUBLIC "-//W3C//DTD SVG 1.1//EN" "http://www.w3.org/Graphics/SVG/1.1/DTD/svg11.dtd"><svg t="1774232424250" class="icon" viewBox="0 0 1024 1024" version="1.1" xmlns="http://www.w3.org/2000/svg" p-id="2209" xmlns:xlink="http://www.w3.org/1999/xlink" width="200" height="200"><path d="M546.816 31.744C388.693333 19.114667 242.176 88.661333 147.072 199.936c-126.72 148.309333-165.930667 375.466667-37.76 573.056 128.213333 197.546667 351.658667 254.378667 538.752 199.082667 187.136-55.296 343.808-224.512 343.936-460.074667v-39.253333h-106.666667V512c-0.128 189.312-120.192 314.24-267.52 357.76-147.285333 43.52-315.989333 3.84-418.986666-154.88-102.954667-158.72-70.357333-328.96 29.44-445.696 99.754667-116.778667 262.741333-175.488 435.626666-98.432l43.434667-97.408a489.344 489.344 0 0 0-160.512-41.6z" fill="currentColor" p-id="2210"></path><path d="M900.906667 132.992L512 522.325333l-90.24-90.24-75.52 75.434667L512 673.152 976.426667 208.341333z" fill="currentColor" p-id="2211"></path></svg>