<?xml version="1.0" standalone="no"?><!DOCTYPE svg PUBLIC "-//W3C//DTD SVG 1.1//EN" "http://www.w3.org/Graphics/SVG/1.1/DTD/svg11.dtd"><svg t="1774232439002" class="icon" viewBox="0 0 1024 1024" version="1.1" xmlns="http://www.w3.org/2000/svg" p-id="2659" xmlns:xlink="http://www.w3.org/1999/xlink" width="200" height="200"><path d="M730.24 218.24l-512 512a53.333333 53.333333 0 0 0 0 75.52 53.333333 53.333333 0 0 0 75.52 0l512-512a53.333333 53.333333 0 0 0 0-75.52 53.333333 53.333333 0 0 0-75.52 0z" fill="currentColor" p-id="2660"></path><path d="M218.24 218.24a53.333333 53.333333 0 0 0 0 75.52l512 512a53.333333 53.333333 0 0 0 75.52 0 53.333333 53.333333 0 0 0 0-75.52l-512-512a53.333333 53.333333 0 0 0-75.52 0z" fill="currentColor" p-id="2661"></path></svg>