<?xml version="1.0" standalone="no"?>
<svg viewBox="0 0 24 24" xmlns="http://www.w3.org/2000/svg" width="200" height="200">
  <path d="M3.375 19.5h17.25m-17.25 0a1.125 1.125 0 01-1.125-1.125M3.375 19.5h1.5C5.496 19.5 6 19 6 18.375m-3.75 0V5.625m0 12.75v-1.5c0-.621.504-1.125 1.125-1.125m18.375 2.625V5.625m0 12.75c0 .621-.504 1.125-1.125 1.125m1.125-1.125v-1.5c0-.621-.504-1.125-1.125-1.125m0 3.75h-1.5A1.125 1.125 0 0118 18.375M20.625 4.5H3.375m17.25 0c.621 0 1.125.504 1.125 1.125M20.625 4.5h-1.5C18.504 4.5 18 5 18 5.625m3.75 0v1.5c0 .621-.504 1.125-1.125 1.125M3.375 4.5c-.621 0-1.125.504-1.125 1.125M3.375 4.5h1.5C5.496 4.5 6 5 6 5.625m-3.75 0v1.5c0 .621.504 1.125 1.125 1.125m0 0h1.5m-1.5 0c-.621 0-1.125.504-1.125 1.125v1.5c0 .621.504 1.125 1.125 1.125m1.5-3.75C5.496 8.25 6 7.75 6 7.125v-1.5M4.875 8.25C5.496 8.25 6 8.75 6 9.375v1.5c0 .625-.504 1.125-1.125 1.125m1.5 0h12m-12 0c-.621 0-1.125.504-1.125 1.125v1.5c0 .621.504 1.125 1.125 1.125M19.125 12h-1.5m1.5 0c.621 0 1.125.504 1.125 1.125v1.5c0 .621-.504 1.125-1.125 1.125m-17.25 0h1.5m14.25 0h1.5m0 0c.621 0 1.125.504 1.125 1.125v1.5c0 .621-.504 1.125-1.125 1.125M6 12h12M6 8.25h12m0 0c.621 0 1.125-.504 1.125-1.125v-1.5c0-.621-.504-1.125-1.125-1.125m0 3.75c.621 0 1.125.504 1.125 1.125v1.5c0 .625-.504 1.125-1.125 1.125" fill="none" stroke="currentColor" stroke-width="1.5" stroke-linecap="round" stroke-linejoin="round"/>
</svg>
