<?xml version="1.0" standalone="no"?><!DOCTYPE svg PUBLIC "-//W3C//DTD SVG 1.1//EN" "http://www.w3.org/Graphics/SVG/1.1/DTD/svg11.dtd"><svg t="1775571066484" class="icon" viewBox="0 0 1024 1024" version="1.1" xmlns="http://www.w3.org/2000/svg" p-id="20153" xmlns:xlink="http://www.w3.org/1999/xlink" width="200" height="200"><path d="M512 34.133333a68.266667 68.266667 0 0 0-67.310933 56.866134L190.464 231.424A68.266667 68.266667 0 1 0 118.101333 338.807467v312.251733a68.266667 68.266667 0 1 0 68.949334 111.752533l257.365333 149.435734a68.266667 68.266667 0 1 0 135.3728 0.887466l260.778667-146.773333a68.266667 68.266667 0 1 0 76.936533-110.933333V334.4384a68.266667 68.266667 0 1 0-80.964267-106.7008L579.106133 90.112A68.266667 68.266667 0 0 0 512 34.133333z m0 136.533334a67.9936 67.9936 0 0 0 43.690667-15.7696l258.184533 138.171733L545.450667 452.471467a67.925333 67.925333 0 0 0-66.013867-0.477867l-259.413333-158.993067 249.105066-137.489066c11.6736 9.489067 26.624 15.1552 42.871467 15.1552z m-312.1152 520.669866a68.266667 68.266667 0 0 0-13.5168-21.162666V352.4608L443.733333 510.1568a68.130133 68.130133 0 0 0 34.133334 60.962133v281.668267l-277.981867-161.450667z m649.352533-31.1296c-13.312 9.0112-23.210667 22.596267-27.579733 38.5024L546.133333 853.674667V571.118933A68.266667 68.266667 0 0 0 580.266667 512v-0.8192l268.970666-159.744v308.770133z" p-id="20154"></path></svg>