<?xml version="1.0" standalone="no"?><!DOCTYPE svg PUBLIC "-//W3C//DTD SVG 1.1//EN" "http://www.w3.org/Graphics/SVG/1.1/DTD/svg11.dtd"><svg t="1775571086462" class="icon" viewBox="0 0 1024 1024" version="1.1" xmlns="http://www.w3.org/2000/svg" p-id="20342" xmlns:xlink="http://www.w3.org/1999/xlink" width="200" height="200"><path d="M573.781333 141.5168a375.876267 375.876267 0 0 1 273.066667 200.0896 68.266667 68.266667 0 0 1 38.434133 128.273067 375.6032 375.6032 0 0 1-274.2272 404.411733 68.266667 68.266667 0 0 1-124.5184 12.288 375.466667 375.466667 0 0 1-342.562133-448.238933 68.266667 68.266667 0 0 1 50.722133-126.7712 375.671467 375.671467 0 0 1 255.522134-169.984 68.266667 68.266667 0 0 1 123.562666 0zM237.909333 387.072c104.2432 103.560533 256.068267 142.677333 380.450134 136.055467 4.5056-12.4928 12.4928-23.278933 22.801066-31.197867-1.774933-65.194667-14.5408-128.477867-38.5024-180.0192-15.36-33.041067-34.884267-60.552533-58.641066-80.964267a68.266667 68.266667 0 0 1-93.252267-30.037333A317.44 317.44 0 0 0 236.202667 356.215467a68.266667 68.266667 0 0 1 1.8432 30.9248z m354.7136 343.176533c20.138667-38.365867 34.474667-85.1968 42.1888-135.441066a68.539733 68.539733 0 0 1-10.581333-13.380267c-134.212267 7.645867-300.8512-32.3584-419.908267-144.9984a317.0304 317.0304 0 0 0 273.8176 390.7584v-0.341333a113.322667 113.322667 0 0 0 5.461334-0.887467 68.266667 68.266667 0 0 1 70.314666-40.482133c14.336-14.813867 27.306667-33.3824 38.7072-55.296z m186.7776-253.678933c9.762133-7.236267 17.066667-14.677333 22.391467-22.186667a67.9936 67.9936 0 0 1-5.256533-82.670933 317.8496 317.8496 0 0 0-191.146667-162.816c20.206933 22.7328 36.864 49.288533 50.244267 77.960533 26.624 57.412267 40.7552 124.928 43.758933 193.058134a68.266667 68.266667 0 0 1 34.269867 20.821333c18.0224-6.894933 33.450667-15.086933 45.738666-24.1664z m49.834667 35.4304v-0.341333c-4.5056 4.096-9.284267 7.9872-14.336 11.6736-18.295467 13.585067-40.277333 24.849067-64.853333 33.792a68.266667 68.266667 0 0 1-58.845867 56.7296c-8.874667 52.497067-24.507733 102.331733-46.762667 144.725333a313.821867 313.821867 0 0 1-36.864 55.773867A317.098667 317.098667 0 0 0 829.303467 512z" p-id="20343"></path></svg>