<?xml version="1.0" standalone="no"?><!DOCTYPE svg PUBLIC "-//W3C//DTD SVG 1.1//EN" "http://www.w3.org/Graphics/SVG/1.1/DTD/svg11.dtd"><svg t="1775568978617" class="icon" viewBox="0 0 1024 1024" version="1.1" xmlns="http://www.w3.org/2000/svg" p-id="9254" xmlns:xlink="http://www.w3.org/1999/xlink" width="200" height="200"><path d="M886.7 729.5H138.5C98 729.5 65 696.1 65 655.2V169.6c0-40.9 33.1-74.3 73.5-74.3h748.2c40.4 0 73.5 33.4 73.5 74.3v485.6c0 40.9-33.1 74.3-73.5 74.3z" fill="#E3E3E3" p-id="9255"></path><path d="M886.1 929.6H137.8c-40.4 0-73.5-33.4-73.5-74.3V295.4h895.2v559.9c0.2 40.8-32.9 74.3-73.4 74.3z" fill="#475762" p-id="9256"></path><path d="M194.6 275.6c0 10.3 8.4 18.7 18.7 18.7s18.7-8.4 18.7-18.7c0-6.7-3.6-12.8-9.3-16.2-5.8-3.3-12.9-3.3-18.7 0-5.8 3.3-9.4 9.5-9.4 16.2zM258 277.4c0 10.3 8.4 18.7 18.7 18.7 10.3 0 18.7-8.4 18.7-18.7s-8.4-18.7-18.7-18.7c-10.3 0.1-18.7 8.4-18.7 18.7zM309.3 276.5c0 10.3 8.4 18.7 18.7 18.7 10.3 0 18.7-8.4 18.7-18.7 0-10.3-8.4-18.7-18.7-18.7-10.4 0.1-18.7 8.4-18.7 18.7zM260.7 429.4H231c-9 0-16.2-8.4-16.2-18.7 0-10.3 7.3-18.7 16.2-18.7h29.7c9 0 16.2 8.4 16.2 18.7 0.1 10.3-7.2 18.7-16.2 18.7z" fill="#CACACA" p-id="9257"></path><path d="M323.3 400.3H264c-10.9 0-19.8-8.8-19.8-19.5s8.9-19.5 19.8-19.5h59.3c10.9 0 19.8 8.8 19.8 19.5s-8.9 19.5-19.8 19.5z m19 73.7h-28.8c-10.9 0-19.8-8.8-19.8-19.5s8.9-19.5 19.8-19.5h28.8c10.9 0 19.8 8.8 19.8 19.5 0 10.8-9 19.5-19.8 19.5z m43.8 73.8h-27.5c-10.9 0-19.8-8.8-19.8-19.5s8.9-19.5 19.8-19.5h27.5c10.9 0 19.8 8.8 19.8 19.5s-8.9 19.5-19.8 19.5z" fill="#F26397" p-id="9258"></path><path d="M574.8 557.1H470.5c-8.9 0-16.2-8.4-16.2-18.7 0-10.3 7.3-18.7 16.2-18.7h104.3c8.9 0 16.2 8.4 16.2 18.7 0 10.3-7.3 18.7-16.2 18.7z" fill="#6ACEB1" p-id="9259"></path><path d="M735.7 559.6h-56.6c-11.6 0-21-9.2-21-20.5s9.4-20.5 21-20.5h56.6c11.6 0 21 9.2 21 20.5s-9.5 20.5-21 20.5z m124.1 71.3H728.4c-11.6 0-21-9.2-21-20.5s9.4-20.5 21-20.5h131.4c11.6 0 21 9.2 21 20.5 0 11.2-9.5 20.5-21 20.5z m-133.2 83.7h-62.9c-11.6 0-21-9.2-21-20.5s9.4-20.5 21-20.5h62.9c11.6 0 21 9.2 21 20.5s-9.5 20.5-21 20.5z m-72.8 77.6h-62.9c-11.6 0-21-9.2-21-20.5s9.4-20.5 21-20.5h62.9c11.6 0 21 9.2 21 20.5s-9.4 20.5-21 20.5z m206-232.6h-56.6c-11.6 0-21-9.2-21-20.5s9.4-20.5 21-20.5h56.6c11.6 0 21 9.2 21 20.5s-9.5 20.5-21 20.5z m-6.9 155h-18.2c-11.6 0-21-9.2-21-20.5s9.4-20.5 21-20.5h18.2c11.6 0 21 9.2 21 20.5s-9.4 20.5-21 20.5z" fill="#5F7786" p-id="9260"></path><path d="M552.2 471.6H421.9c-11.2 0-20.3-9.1-20.3-20.3s9.1-20.3 20.3-20.3h130.3c11.2 0 20.3 9.1 20.3 20.3s-9.1 20.3-20.3 20.3z m40.5 147.6H462.4c-11.2 0-20.3-9.1-20.3-20.3s9.1-20.3 20.3-20.3h130.3c11.2 0 20.3 9.1 20.3 20.3-0.1 11.1-9.2 20.3-20.3 20.3z m0 83H462.4c-11.2 0-20.3-9.1-20.3-20.3 0-11.2 9.1-20.3 20.3-20.3h130.3c11.2 0 20.3 9.1 20.3 20.3-0.1 11.2-9.2 20.3-20.3 20.3z m-98.6 76.9h-31.7c-11.2 0-20.3-9.1-20.3-20.3 0-11.2 9.1-20.3 20.3-20.3h31.7c11.2 0 20.3 9.1 20.3 20.3-0.1 11.2-9.2 20.3-20.3 20.3z" fill="#6ACEB1" p-id="9261"></path><path d="M415 606.6h-23c-8.7 0-15.8-7.2-15.8-16.1s7.1-16.1 15.8-16.1h23c8.7 0 15.8 7.2 15.8 16.1s-7.1 16.1-15.8 16.1z m0 60.9h-23c-8.7 0-15.8-7.2-15.8-16.1 0-8.9 7.1-16.1 15.8-16.1h23c8.7 0 15.8 7.2 15.8 16.1 0 8.8-7.1 16.1-15.8 16.1z m-34.6 60.8h-27.8c-8.7 0-15.8-7.2-15.8-16.1s7.1-16.1 15.8-16.1h27.8c8.7 0 15.8 7.2 15.8 16.1-0.1 8.9-7.2 16.1-15.8 16.1zM357 785.7h-47.3c-8.7 0-15.8-7.2-15.8-16.1 0-8.9 7.1-16.1 15.8-16.1H357c8.7 0 15.8 7.2 15.8 16.1 0 8.9-7.1 16.1-15.8 16.1z" fill="#F26397" p-id="9262"></path><path d="M186.5 471.5H145c-12.5 0-22.7-9.4-22.7-20.8s10.2-20.8 22.7-20.8h41.5c12.5 0 22.7 9.4 22.7 20.8s-10.2 20.8-22.7 20.8z m0 78.7H145c-12.5 0-22.7-9.4-22.7-20.8s10.2-20.8 22.7-20.8h41.5c12.5 0 22.7 9.4 22.7 20.8s-10.2 20.8-22.7 20.8z m0 78.7H145c-12.5 0-22.7-9.4-22.7-20.8 0-11.5 10.2-20.8 22.7-20.8h41.5c12.5 0 22.7 9.4 22.7 20.8s-10.2 20.8-22.7 20.8z m0 78.7H145c-12.5 0-22.7-9.4-22.7-20.8 0-11.5 10.2-20.8 22.7-20.8h41.5c12.5 0 22.7 9.4 22.7 20.8s-10.2 20.8-22.7 20.8z m0 78.7H145c-12.5 0-22.7-9.4-22.7-20.8 0-11.5 10.2-20.8 22.7-20.8h41.5c12.5 0 22.7 9.4 22.7 20.8s-10.2 20.8-22.7 20.8z m0 78.7H145c-12.5 0-22.7-9.4-22.7-20.8s10.2-20.8 22.7-20.8h41.5c12.5 0 22.7 9.4 22.7 20.8S199 865 186.5 865z" fill="#CACACA" p-id="9263"></path></svg>