<?xml version="1.0" standalone="no"?><!DOCTYPE svg PUBLIC "-//W3C//DTD SVG 1.1//EN" "http://www.w3.org/Graphics/SVG/1.1/DTD/svg11.dtd"><svg t="1775182997805" class="icon" viewBox="0 0 1024 1024" version="1.1" xmlns="http://www.w3.org/2000/svg" p-id="10491" xmlns:xlink="http://www.w3.org/1999/xlink" width="200" height="200"><path d="M727.444 489.328h28.37L752.126 524h-28.272l3.59-34.672z m239.516-194.512v434.368c-0.962 27.432-14.906 51.956-39.4 68.248L551.38 1014.614c-21.67 12.514-57.134 12.514-78.804 0L96.402 797.432C73.572 782.464 58.686 758.328 57 729.184V294.816c0-25.024 17.73-55.738 39.4-68.248L472.58 9.386c21.668-12.514 57.132-12.514 78.802 0L927.56 226.568c22.756 15.36 38.522 41.918 39.402 68.248z m-192.3 368.928l-131.268-75.958C555.828 727.96 362.44 659.46 360.32 512.002c7.06-159.998 203.82-206.862 283.064-75.794l131.268-75.96C603.58 85.042 206.88 215.822 208.66 512c7.604 319.304 415.236 413.468 566 151.742z m31.34-198.56h-22.506L787.552 426h-25l-4.168 39.184h-28.44L734 426H709l-4.168 39.184H681v24.144h21.264L698.576 524H674v24.144h22.008l-4.56 42.856h25.47l4.438-42.856h28.202L745 591h25.47l4.436-42.856H799V524h-21.594l3.588-34.672H806v-24.144z" fill="#0277BD" p-id="10492"></path></svg>