<?xml version="1.0" standalone="no"?><!DOCTYPE svg PUBLIC "-//W3C//DTD SVG 1.1//EN" "http://www.w3.org/Graphics/SVG/1.1/DTD/svg11.dtd"><svg t="1774232415544" class="icon" viewBox="0 0 1024 1024" version="1.1" xmlns="http://www.w3.org/2000/svg" p-id="1904" xmlns:xlink="http://www.w3.org/1999/xlink" width="200" height="200"><path d="M213.333333 416A139.52 139.52 0 0 0 74.666667 554.666667v298.666666A139.52 139.52 0 0 0 213.333333 992h597.333334A139.52 139.52 0 0 0 949.333333 853.333333v-298.666666A139.52 139.52 0 0 0 810.666667 416z m0 106.666667h597.333334c18.645333 0 32 13.354667 32 32v298.666666c0 18.645333-13.354667 32-32 32H213.333333a30.848 30.848 0 0 1-32-32v-298.666666c0-18.645333 13.354667-32 32-32z" fill="#000000" p-id="1905"></path><path d="M512 32c-65.194667 0-131.072 21.504-182.101333 66.816C278.912 144.213333 245.333333 214.229333 245.333333 298.666667v170.666666A53.333333 53.333333 0 0 0 298.666667 522.666667 53.333333 53.333333 0 0 0 352 469.333333V298.666667c0-57.770667 19.754667-94.378667 48.768-120.149334 29.013333-25.813333 69.76-39.850667 111.232-39.850666 41.472 0 82.261333 14.08 111.232 39.850666 29.013333 25.770667 48.768 62.378667 48.768 120.149334v170.666666A53.333333 53.333333 0 0 0 725.333333 522.666667 53.333333 53.333333 0 0 0 778.666667 469.333333V298.666667c0-84.48-33.578667-154.496-84.565334-199.850667C643.072 53.504 577.194667 32 512 32z" fill="#000000" p-id="1906"></path></svg>