<?xml version="1.0" standalone="no"?><!DOCTYPE svg PUBLIC "-//W3C//DTD SVG 1.1//EN" "http://www.w3.org/Graphics/SVG/1.1/DTD/svg11.dtd"><svg t="1775571195968" class="icon" viewBox="0 0 1024 1024" version="1.1" xmlns="http://www.w3.org/2000/svg" p-id="4617" xmlns:xlink="http://www.w3.org/1999/xlink" width="200" height="200"><path d="M934.122732 467.928615h-0.236307c-9.767385 0-19.495385 1.575385-28.75077 4.726154L556.739348 190.857846c6.380308-17.329231 6.695385-36.233846 0.827077-53.799384a83.771077 83.771077 0 0 0-41.196308-48.403693 88.221538 88.221538 0 0 0-64.393846-6.695384h-0.393846l-2.363077 0.787692-0.984616 0.315077-1.851077 0.551384-0.157538 0.157539a87.04 87.04 0 0 0-40.172308 30.011077 82.865231 82.865231 0 0 0-16.187077 46.592l-207.163077 65.575384a85.700923 85.700923 0 0 0-41.747692-25.678769 87.985231 87.985231 0 0 0-49.467077 1.024h-0.118154a86.449231 86.449231 0 0 0-50.018461 41.944616 82.786462 82.786462 0 0 0 13.075692 94.877538c8.349538 8.900923 18.589538 15.990154 30.050462 20.716308l-19.574154 413.814154c-20.873846 6.104615-38.833231 19.298462-50.530462 37.100307a85.937231 85.937231 0 0 0-13.233231 60.061539 87.433846 87.433846 0 0 0 30.483693 53.878154 92.750769 92.750769 0 0 0 73.058461 20.519384c18.786462-2.756923 36.194462-11.185231 49.821539-24.024615 13.627077-12.8 22.764308-29.420308 26.190769-47.497846l322.363077-65.378462c6.931692 9.058462 15.990154 16.502154 26.387692 21.661539 10.436923 5.12 21.937231 7.876923 33.634462 7.955692h0.315077c9.964308-0.078769 19.889231-2.048 29.065846-5.828923 9.216-3.780923 17.565538-9.255385 24.576-16.147692 7.010462-6.931692 12.563692-15.123692 16.305231-24.103385 3.741538-8.979692 5.592615-18.589538 5.513846-28.278154 0-1.575385 0-3.190154-0.196923-4.804923l235.165538-135.640615c16.462769 14.454154 37.888 22.449231 60.140308 22.44923a92.672 92.672 0 0 0 63.803077-26.190769c16.935385-16.541538 26.387692-38.833231 26.427077-62.070154 0-23.276308-9.452308-45.607385-26.308923-62.148923a92.672 92.672 0 0 0-63.803077-26.269538zM474.425502 125.755077c7.207385 0 14.217846 2.048 20.204307 5.907692 5.986462 3.899077 10.633846 9.412923 13.390769 15.832616a34.264615 34.264615 0 0 1-7.876923 38.439384 37.494154 37.494154 0 0 1-39.660307 7.640616 36.194462 36.194462 0 0 1-16.344616-12.996923 34.461538 34.461538 0 0 1 4.529231-44.504616 36.982154 36.982154 0 0 1 25.757539-10.318769zM203.656271 278.449231l203.460923-64.433231c5.474462 6.971077 12.012308 13.075692 19.416615 18.038154l-58.210461 187.864615a113.821538 113.821538 0 0 0-62.109539 15.950769L194.873502 318.660923c6.262154-12.484923 9.255385-26.269538 8.782769-40.172308z m-127.960616 2.284307c0-8.073846 2.481231-15.990154 7.089231-22.685538 4.647385-6.695385 11.264-11.972923 18.944-15.044923a43.441231 43.441231 0 0 1 45.961846 8.822154 39.699692 39.699692 0 0 1 9.176616 44.504615c-3.150769 7.483077-8.585846 13.863385-15.517539 18.353231a43.165538 43.165538 0 0 1-53.248-5.041231 40.802462 40.802462 0 0 1-12.406154-28.908308z m14.493539 614.518154a38.990769 38.990769 0 0 1-21.188923-6.222769 37.218462 37.218462 0 0 1-14.060308-16.541538 35.879385 35.879385 0 0 1 8.270769-40.290462 39.227077 39.227077 0 0 1 41.55077-7.995077 37.888 37.888 0 0 1 17.132307 13.587692 36.115692 36.115692 0 0 1-4.726154 46.631385 38.754462 38.754462 0 0 1-26.978461 10.830769z m34.264615-120.792615l-1.890461-0.708923L141.979963 362.338462c4.096-1.181538 8.073846-2.678154 11.933539-4.450462l112.088615 118.153846a110.040615 110.040615 0 0 0 5.513846 120.674462l-147.062154 177.782154z m363.716923-21.858462l-315.904 64.196923a82.747077 82.747077 0 0 0-3.780923-6.537846l146.707693-177.112615a115.908923 115.908923 0 0 0 95.586461 1.772308l84.48 94.956307a72.073846 72.073846 0 0 0-7.089231 22.724923z m75.972923 49.624616a41.747692 41.747692 0 0 1-22.685538-6.616616 39.857231 39.857231 0 0 1-15.044923-17.762461 38.4 38.4 0 0 1 8.822154-43.126154 42.062769 42.062769 0 0 1 44.504615-8.585846c7.483077 3.032615 13.824 8.113231 18.313846 14.572308a38.675692 38.675692 0 0 1-5.041231 49.939692 41.511385 41.511385 0 0 1-28.829538 11.618461h-0.078769z m48.994462-95.389539c-13.784615-11.815385-31.507692-18.471385-49.900308-18.589538h-0.315077a78.020923 78.020923 0 0 0-24.418461 4.214154l-82.313846-92.396308c7.561846-9.570462 13.390769-20.283077 17.408-31.665231l359.187692 11.697231-219.648 126.739692z m236.504615-182.272l-371.475692-12.051692a109.568 109.568 0 0 0-18.510769-44.347077 113.585231 113.585231 0 0 0-35.958154-32.768l58.368-188.770461c13.548308-1.024 26.663385-5.198769 38.203077-12.091077l338.195692 273.171692c-3.544615 5.316923-6.498462 10.948923-8.822154 16.856615z m86.488616 76.327385a44.898462 44.898462 0 0 1-24.418462-7.168 42.811077 42.811077 0 0 1-16.147692-19.101539 41.353846 41.353846 0 0 1 9.570461-46.355692c6.144-5.907692 13.981538-10.003692 22.449231-11.618461 8.546462-1.614769 17.368615-0.787692 25.403077 2.441846 8.034462 3.229538 14.848 8.664615 19.692308 15.714461a41.590154 41.590154 0 0 1-5.513846 53.681231 44.622769 44.622769 0 0 1-31.035077 12.445539v-0.039385z" p-id="4618"></path></svg>